<?xml version="1.0" standalone="no"?>
<!DOCTYPE svg PUBLIC "-//W3C//DTD SVG 20010904//EN"
 "http://www.w3.org/TR/2001/REC-SVG-20010904/DTD/svg10.dtd">
<svg version="1.0" xmlns="http://www.w3.org/2000/svg"
 width="500.000000pt" height="500.000000pt" viewBox="0 0 500.000000 500.000000"
 preserveAspectRatio="xMidYMid meet">

<g transform="translate(0.000000,500.000000) scale(0.100000,-0.100000)"
fill="#000000" stroke="none">
<path d="M3434 4400 c-288 -28 -577 -143 -826 -330 l-76 -58 -46 53 c-117 136
-316 239 -533 275 -40 6 -180 12 -310 13 l-238 2 -7 -78 c-31 -345 -281 -656
-608 -758 l-55 -17 -3 -1001 -2 -1001 325 0 325 0 2 560 3 559 430 -557 431
-557 412 -3 413 -2 -12 21 c-10 20 -9 21 7 15 101 -39 291 -74 447 -83 l117
-6 0 69 c1 357 375 597 699 449 29 -14 55 -25 57 -25 2 0 -32 72 -76 160 -44
88 -83 160 -88 160 -4 0 -27 -14 -52 -30 -54 -36 -199 -93 -290 -115 -210 -50
-507 -17 -694 76 -104 52 -191 123 -264 213 -78 97 -114 162 -154 276 -31 91
-32 102 -33 245 0 130 3 160 23 225 94 296 315 507 610 580 102 25 292 44 367
35 144 -15 330 -74 436 -138 l56 -34 137 275 c76 151 134 278 129 282 -4 5
-36 26 -71 48 -222 143 -663 233 -988 202z m-1702 -591 c131 -37 178 -73 224
-174 39 -84 45 -205 15 -303 -24 -79 -86 -158 -147 -187 -64 -30 -212 -55
-331 -55 l-113 0 0 376 0 377 141 -8 c88 -4 168 -14 211 -26z"/>
<path d="M4040 1705 c-136 -62 -163 -243 -53 -347 38 -36 73 -48 141 -48 198
1 277 259 115 374 -51 35 -148 46 -203 21z"/>
<path d="M1060 975 l0 -145 30 0 30 0 0 60 c0 33 4 60 10 60 5 0 31 -27 57
-60 41 -51 53 -60 81 -60 37 0 37 3 -15 67 -39 48 -40 54 -13 78 13 12 20 30
20 54 -1 66 -38 91 -134 91 l-66 0 0 -145z m138 61 c5 -23 -14 -36 -50 -36
-25 0 -28 4 -28 31 0 29 2 30 37 27 28 -2 39 -8 41 -22z"/>
<path d="M1390 975 l0 -145 90 0 90 0 0 30 0 30 -60 0 c-60 0 -60 0 -60 29 0
29 2 30 53 33 48 3 52 5 55 31 3 27 2 27 -52 27 -53 0 -56 1 -56 25 0 24 3 25
60 25 l60 0 0 30 0 30 -90 0 -90 0 0 -145z"/>
<path d="M1942 1100 c-76 -46 -90 -160 -28 -227 52 -57 139 -60 197 -7 19 18
19 18 0 37 -18 18 -21 18 -42 3 -26 -18 -71 -21 -99 -6 -26 14 -43 71 -31 103
19 49 77 71 123 46 18 -9 24 -8 35 7 19 26 17 30 -21 48 -46 22 -94 20 -134
-4z"/>
<path d="M2210 1115 c0 -3 23 -39 50 -80 47 -70 50 -78 50 -140 l0 -65 30 0
30 0 0 68 c0 60 4 73 33 117 19 28 42 62 52 78 l17 27 -35 0 c-32 0 -40 -6
-68 -46 l-31 -46 -30 46 c-26 40 -35 46 -64 46 -19 0 -34 -2 -34 -5z"/>
<path d="M2634 1110 c-11 -4 -34 -24 -52 -44 -27 -31 -32 -45 -32 -87 0 -27 7
-63 15 -79 38 -74 142 -97 205 -44 l31 27 -20 20 c-19 20 -21 20 -39 4 -27
-25 -84 -22 -110 6 -65 69 16 181 99 136 15 -7 24 -7 35 2 49 40 -58 89 -132
59z"/>
<path d="M2890 975 l0 -145 91 0 90 0 -3 28 c-3 26 -6 27 -60 30 l-58 3 0 114
0 115 -30 0 -30 0 0 -145z"/>
<path d="M3150 1096 c0 -14 5 -28 10 -31 6 -3 10 -46 10 -96 0 -53 -4 -89 -10
-89 -5 0 -10 -11 -10 -25 0 -23 3 -25 50 -25 47 0 50 2 50 25 0 14 -4 25 -10
25 -6 0 -10 38 -10 95 0 57 4 95 10 95 6 0 10 11 10 25 0 23 -3 25 -50 25 -46
0 -50 -2 -50 -24z"/>
<path d="M3350 976 l0 -146 30 0 30 0 0 92 0 93 68 -93 c56 -77 71 -92 95 -92
l27 0 0 146 0 145 -27 -3 c-28 -3 -28 -4 -33 -91 l-5 -88 -65 88 c-51 69 -71
89 -92 91 l-28 3 0 -145z"/>
<path d="M3763 1101 c-88 -55 -96 -171 -17 -241 45 -39 113 -42 165 -7 31 21
34 27 37 80 l3 57 -56 0 c-52 0 -55 -1 -55 -25 0 -20 5 -25 25 -25 29 0 36
-34 9 -44 -54 -21 -110 6 -120 58 -13 74 54 129 117 95 16 -8 25 -7 40 7 20
18 20 18 0 37 -29 29 -107 34 -148 8z"/>
<path d="M1670 940 c0 -19 5 -21 57 -18 46 2 59 7 61 21 3 15 -5 17 -57 17
-55 0 -61 -2 -61 -20z"/>
</g>
</svg>
