<?xml version="1.0" encoding="UTF-8"?>
<svg version="1.1" viewBox="0 0 2000 2000" width="1280" height="1280" xmlns="http://www.w3.org/2000/svg">
<path transform="translate(0)" d="m0 0h2e3v2e3h-2e3z" fill="#fff"/>
<path transform="translate(1165,282)" d="m0 0h28l15 2 22 5 15 5 17 8 18 11 12 9 12 11 9 9 13 17 11 18 8 17 7 21 4 20 2 16v25l-3 21-5 21-11 33-9 21-11 24-14 26-15 25-16 25-11 16-14 20-12 17-11 14-13 16-9 12-9 11-13 15-2 3h57l17 17 7 8 11 12 7 8 11 12 2 4-15 26-10 17-1 4 17 48 18 50 21 58 14 38 9 26 7 18 5-1 25-11 33-11 25-5 20-3 23-2h22l25 2 28 5 32 8 19 7 24 11 20 11 15 10 13 10 13 11 10 9 24 24 11 14 12 17 12 21 9 17 8 19 8 24 6 22 4 29 2 27v11l-3 36-3 21-6 23-8 24-9 21-11 21-8 13-12 17-7 9-9 10-16 17-15 14-10 8-18 13-22 14-16 8-26 11-17 6-19 5-19 4-25 3h-56l-38-6-24-6-24-9-33-15-19-12-14-10-13-10-20-18-13-13-14-16-13-19-13-20-12-23-6-14-11-33-5-22-4-32-1-14v-22l2-26 6-32 8-27 6-16 9-20 10-19 10-16 13-17 8-10 11-12 7-8 12-12 8-7 7-5-1-5-9-26-2-7-9 11-9 9-7 8-12 14-13 14-7 8-9 10-7 8-9 10-7 8-10 11-9 11-8 8-7 8-13 15-12 13-11 12-9 11-14 15-7 8-9 10-7 8-9 10-11 12-9 11-15 16-9 10-9 11-14 15-2 3h-2l-2 4-9 10-1 2h-2l-2 4-3 4 1 9v12l-3 10-7 11-7 6-13 6-9 2-5 21-14 55-1 3 16-1v22l-1 1-31-1-35-2 1-14 1-7 5-1h15l2-6 14-64 1-7-13-11-9-10-3-5-90-16h-2l-6 20-10 25-8 17-12 20-20 28-11 11-1 2h-2l-2 4-9 9-7 8-10 9-12 9-19 13-13 8-27 14-21 9-30 10-24 5-29 3h-52l-34-5-28-7-24-9-33-15-19-12-14-10-13-10-20-18-13-13-7-8-8-9-13-18-12-20-12-23-6-14-11-33-5-21-4-33-1-13v-22l3-34 5-27 8-26 7-19 12-25 12-21 14-20 9-11 11-12 21-21 11-9 12-10 15-11 28-16 25-11 27-9 26-6 24-4 24-2h21l30 2 8 1 12-23 10-21 16-43 11-33 16-54 12-44 9-26 17-45 11-26 16-31 14-24 11-18 12-17 14-19 12-15 11-14 32-32 11-9 12-10 14-10 27-18 13-8 27-14 23-10 22-8 34-10 26-6 11-1-6-26-3-22v-30l4-25 10-30 11-21 12-17 12-14 15-15 18-13 18-10 15-7 20-6 20-4z" fill="#010101"/>
<path transform="translate(1487,1167)" d="m0 0h15l31 3 26 5 21 7 20 9 16 8 17 10 11 9 14 11 13 12 13 14 14 19 10 15 6 10 11 25 7 18 5 21 3 22 2 21v15l-4 37-5 22-7 20-11 26-14 23-16 21-7 8-20 20-20 15-13 9-15 9-22 10-33 11-12 3-33 4-19 1-26-2-26-4-29-9-24-10-17-9-12-8-11-8-13-10-12-11-14-14-9-11-11-15-12-19-12-27-7-19-5-19-4-30-1-11v-21l3-26 5-25 5-18 9-23 7-12 6-11 10-16 11-14 9-11 15-15 2 2 3 10 12 26 14 26 18 27 9 12 11 12 7 8 23 23 11 9 17 14 7 6 2 4 2 11 8 11 8 5 10 2 10-1 10-4 5-5 6-9 2-6v-13l-4-10-6-8-6-4-14-4-11-9-13-10-15-14-20-20-7-8-9-11-7-10-12-21-11-22-11-27-7-21v-3l26-13 28-10 17-4 23-4z" fill="#fff"/>
<path transform="translate(1056,671)" d="m0 0h27l8 11 11 16 16 23 13 17 12 15 10 13 9 11 10 12v2l4 2v3h-59v18l-1 16h106l10 11 7 8 2 2v5l-10 17-13 23 2 9 13 47 13 44 2 9h-428l-7-17v-3l30-7 32-9 26-11 17-9 5-4 3-5v-6l-5-6-11-3-33-2-85-4-7-1 1-6 10-26 9-21 17-34 20-30 9-13 9-11 7-9 11-13 11-9 9-9 11-9 15-10 17-11 16-8 23-11 29-9 28-6z" fill="#fff"/>
<path transform="translate(1e3 523)" d="m0 0h5l5 11 6 18 13 30 13 26 11 20 10 17 11 17 3 5v2l2 2-27 1-24 3-26 6-26 8-25 12-16 8-27 18-9 7-13 12-10 9-5 5-10 11-18 24-20 30-8 14-15 30-8 20-11 29-2-1h-23l-58-3h-39l-7 3-3 4v6l6 10 9 10 11 11 15 9 6 3 22 7 25 6 7 3 4 10 3 9 8 22-3 5-11 14-14 18-8 9-8 10-18 22-13 16-8 10-11 13-6 8-5-1-22-11-19-8-27-9-25-6-18-4 20-40 11-29 9-24 9-28 16-54 12-44 9-26 17-45 11-26 16-31 14-24 11-18 12-17 14-19 12-15 11-14 32-32 11-9 12-10 14-10 27-18 13-8 27-14 23-10 22-8 34-10 26-6z" fill="#222022"/>
<path transform="translate(837,1057)" d="m0 0 429 1 4 16 2 4-9 10-7 8-11 12-9 11-14 15-7 8-11 12-9 11-7 7-7 8-11 12-9 11-7 7-7 8-10 11-7 8-9 10-7 8-11 12-7 8-18 20-10 11-9 11-7 7-7 8-11 12-7 8-9 10-11 12-9 10-9 11-7 9-1-4 1-4 2-26 1-7h15v-13l1-7h-57l-1 21h12l1 3-3 24-2 10-2-1-4-15-62-186-13-40-33-99z" fill="#fff"/>
<path transform="translate(471,1416)" d="m0 0 3 2 3 7 7 9 7 4 10 2 10-1 4-1h7l215 41 7 2-3 9-8 21-8 17-16 27-10 11-8 10-9 10-9 9-11 9-10 8-30 18-28 13-15 5-28 7-22 3-10 1h-31l-26-3-18-4-30-10-20-9-13-7-12-8-11-8-13-10-10-9-17-17-11-14-10-14-11-18-11-25-7-19v-4l25-2 28-5 31-7 35-11 39-16 28-14z" fill="#fff"/>
<path transform="translate(498,1167)" d="m0 0h22l26 3 32 6 9 3 7 1 8 3 7 2v2l5 1 15 7 7 3-2 4-10 14-13 17-9 12-30 39-15 20-10 13-9 12-14 18-10 13-8 10-5 6-11 3-8 6-7 10-2 5-1 11 2 7-3-1-45 23-34 14-33 11-24 6-36 7-14 2h-17l-3-8-4-25-3-27v-13l3-30 4-20 6-23 4-10 12-27 10-16 10-14 9-12 7-7 7-8 9-9 11-9 13-10 10-7 17-10 30-13 13-5 21-5 21-3z" fill="#222022"/>
<path transform="translate(786,1087)" d="m0 0 2 1 16 49 66 198 14 43 21 63 3 10-13-1-79-8-7-1 2-22v-12l-3-36-4-26-6-26-11-32-10-21-10-17-12-18-12-16-11-14-22-22 2-4h2l2-4 8-9 8-10 9-10 11-14 9-10 8-10 11-13z" fill="#fff"/>
<path transform="translate(674,1224)" d="m0 0 5 3 19 19 8 11 9 12 12 20 7 16 8 25 5 21 3 21 4 57-22-3-184-30-6-2 5-5 8-10 12-16 11-14 10-13 14-18 10-13 11-14 7-9 12-16 8-10 12-16 10-13z" fill="#fff"/>
<path transform="translate(498,1167)" d="m0 0h19l2 2-9 10-10 13-8 10-11 12-12 13-11 11-14 11-10 8-18 13-13 9-21 12-23 11-26 10-26 8-23 5-9 1 3-9 11-24 10-15 13-18 9-10 11-12 7-7 11-9 13-10 10-7 17-10 30-13 13-5 21-5 21-3z" fill="#fff"/>
<path transform="translate(1170,398)" d="m0 0h18l12 3 14 7 13 11 9 13 5 13 2 9v17l-4 15-6 11-7 9-9 8-15 8-14 4-12 1-14-3-12-5-12-7-9-9-8-13-5-15-1-7v-13l3-14 8-16 11-12 10-7 13-6z" fill="#fff"/>
<path transform="translate(443,1337)" d="m0 0 5 1v7l-7 8-14 10-13 8-9 3-6-1-5-5 1-4 5-6 23-13 17-7z" fill="#fff"/>
<path transform="translate(806,712)" d="m0 0 4 1 1 1v10l-12 19-9 14-7 6-8 1-3-3v-7l6-12 9-12 10-11z" fill="#fff"/>
<path transform="translate(737,816)" d="m0 0h5l3 7-1 8-10 29-5 9-4 3-7 1-3-3v-10l7-20 9-16z" fill="#fff"/>
<path transform="translate(902,634)" d="m0 0 4 2-1 8-5 5-11 9-14 11-8 5-5 1-6-4-1-1v-5l7-9 11-8 9-6 13-6z" fill="#fff"/>
<path transform="translate(320,1387)" d="m0 0h15l1 1-1 7-4 4-31 10-5 1h-12l-6-5-1-4 5-5 10-4 21-4z" fill="#fff"/>
<path transform="translate(1e3 593)" d="m0 0h17l3 3-2 5-5 4-36 12-10 1-7-6 1-5 8-6 15-5z" fill="#fff"/>
<path transform="translate(537,1259)" d="m0 0 4 1 2 7-4 8-12 14-9 10-8 6-2 1h-6l-5-4 1-6 4-6 20-20z" fill="#fff"/>
<path transform="translate(660,1049)" d="m0 0 4 1 3 4 1 5-7 27-6 15-5 4-6 2-4-2-1-2v-8l7-21 11-21z" fill="#fff"/>
<path transform="translate(593,1181)" d="m0 0 13 3 2 1-1 5-8 15-6 7-4 2h-6l-4-3 1-8 5-10 7-11z" fill="#fff"/>
<path transform="translate(759 1e3)" d="m0 0 3 3 6 17 1 3-3 5-11 14-12 16-2-1 7-18 9-32z" fill="#FEFEFE"/>
<path transform="translate(681,961)" d="m0 0 5 1 11 7 1 3-3 10-4 6-4 3-6-1-2-4v-13z" fill="#fff"/>
</svg>
